# xmcd
#
# Track frame offsets:
#	150
#	15142
#	29280
#	44519
#	62381
#	80283
#	93318
#	107285
#	125712
#	141591
#	159295
#	172829
#	189063
#	206416
#	220967
#	239087
#	253035
#	268162
#
# Disc length: 3808 seconds
#
# Revision: 4
# Processed by: cddbd v1.5.1PL0 Copyright (c) Steve Scherf et al.
# Submitted via: audiograbber 1.83.01
#
DISCID=eb0ede12
DTITLE=Various Artist - RC65 Top Hits Usa April 2001
DYEAR=1900
DGENRE=Country
TTITLE0=Brooks and Dunn - Ain't Nothing 'Bout You
TTITLE1=Dixie Chicks - If I Fall You're Going Down With Me
TTITLE2=Mark McGuinn - Mrs Steven Rudy
TTITLE3=Tim McGraw - Grown Men Don't Cry
TTITLE4=Sara Evans - I Could Not Ask For More (Single Edit)
TTITLE5=Trick Pony - Pour Me
TTITLE6=Gary Allan - Right Where I Need To BE
TTITLE7=George Strait - If You Can Do Anything Else
TTITLE8=Pam Tillis - Please
TTITLE9=Phil Vassar - Rose Bouquet
TTITLE10=Dwight Yoakam - What Do You Know About Love
TTITLE11=Martina McBride - It's My Time
TTITLE12=Vince Gill - Shoot Straight From Your Heart
TTITLE13=Lorrie Morgan and Sammy Kershaw - He Drinks Tequila
TTITLE14=Travis Tritt - It's A Great Day To Be Alive
TTITLE15=Meredith Edwards - A Rose Is A Rose
TTITLE16=Kenny Chesney - Don't Happen Twice
TTITLE17=Tim Rushlow - She Misses Him
EXTD=ID3G: 2
EXTT0=
EXTT1=
EXTT2=
EXTT3=
EXTT4=
EXTT5=
EXTT6=
EXTT7=
EXTT8=
EXTT9=
EXTT10=
EXTT11=
EXTT12=
EXTT13=
EXTT14=
EXTT15=
EXTT16=
EXTT17=
PLAYORDER=
